<mxfile host="Electron" agent="Mozilla/5.0 (Windows NT 10.0; Win64; x64) AppleWebKit/537.36 (KHTML, like Gecko) draw.io/27.0.2 Chrome/134.0.6998.205 Electron/35.3.0 Safari/537.36" version="27.0.2">
  <diagram id="Oc_Ov9r_Zk-Uc3yk-Ixl" name="Update Menu">
    <mxGraphModel dx="786" dy="516" grid="1" gridSize="10" guides="1" tooltips="1" connect="1" arrows="1" fold="1" page="1" pageScale="1" pageWidth="850" pageHeight="1100" math="0" shadow="0">
      <root>
        <mxCell id="0" />
        <mxCell id="1" parent="0" />
        <mxCell id="kcbRz5hDqYjQXDxTJVLB-1" value="&lt;font style=&quot;font-size: 16px;&quot;&gt;&lt;b&gt;System Sequence Diagram: Update Menu&lt;/b&gt;&lt;/font&gt;" style="text;html=1;strokeColor=none;fillColor=none;align=center;verticalAlign=middle;whiteSpace=wrap;rounded=0;" parent="1" vertex="1">
          <mxGeometry x="275" y="20" width="335" height="30" as="geometry" />
        </mxCell>
        <mxCell id="kcbRz5hDqYjQXDxTJVLB-2" value="Menu Manager" style="shape=umlLifeline;perimeter=lifelinePerimeter;whiteSpace=wrap;html=1;container=1;dropTarget=0;collapsible=0;recursiveResize=0;outlineConnect=0;portConstraint=eastwest;newEdgeStyle={&quot;curved&quot;:0,&quot;rounded&quot;:0};" parent="1" vertex="1">
          <mxGeometry x="120" y="80" width="100" height="800" as="geometry" />
        </mxCell>
        <mxCell id="kcbRz5hDqYjQXDxTJVLB-3" value="" style="html=1;points=[[0,0,0,0,5],[0,1,0,0,-5],[1,0,0,0,5],[1,1,0,0,-5]];perimeter=orthogonalPerimeter;outlineConnect=0;targetShapes=umlLifeline;portConstraint=eastwest;newEdgeStyle={&quot;curved&quot;:0,&quot;rounded&quot;:0};" parent="kcbRz5hDqYjQXDxTJVLB-2" vertex="1">
          <mxGeometry x="45" y="80" width="10" height="680" as="geometry" />
        </mxCell>
        <mxCell id="kcbRz5hDqYjQXDxTJVLB-4" value="System" style="shape=umlLifeline;perimeter=lifelinePerimeter;whiteSpace=wrap;html=1;container=1;dropTarget=0;collapsible=0;recursiveResize=0;outlineConnect=0;portConstraint=eastwest;newEdgeStyle={&quot;curved&quot;:0,&quot;rounded&quot;:0};" parent="1" vertex="1">
          <mxGeometry x="375" y="80" width="100" height="800" as="geometry" />
        </mxCell>
        <mxCell id="kcbRz5hDqYjQXDxTJVLB-5" value="" style="html=1;points=[[0,0,0,0,5],[0,1,0,0,-5],[1,0,0,0,5],[1,1,0,0,-5]];perimeter=orthogonalPerimeter;outlineConnect=0;targetShapes=umlLifeline;portConstraint=eastwest;newEdgeStyle={&quot;curved&quot;:0,&quot;rounded&quot;:0};" parent="kcbRz5hDqYjQXDxTJVLB-4" vertex="1">
          <mxGeometry x="45" y="80" width="10" height="680" as="geometry" />
        </mxCell>
        <mxCell id="kcbRz5hDqYjQXDxTJVLB-6" value="Mess Manager" style="shape=umlLifeline;perimeter=lifelinePerimeter;whiteSpace=wrap;html=1;container=1;dropTarget=0;collapsible=0;recursiveResize=0;outlineConnect=0;portConstraint=eastwest;newEdgeStyle={&quot;curved&quot;:0,&quot;rounded&quot;:0};" parent="1" vertex="1">
          <mxGeometry x="630" y="80" width="100" height="800" as="geometry" />
        </mxCell>
        <mxCell id="kcbRz5hDqYjQXDxTJVLB-7" value="" style="html=1;points=[[0,0,0,0,5],[0,1,0,0,-5],[1,0,0,0,5],[1,1,0,0,-5]];perimeter=orthogonalPerimeter;outlineConnect=0;targetShapes=umlLifeline;portConstraint=eastwest;newEdgeStyle={&quot;curved&quot;:0,&quot;rounded&quot;:0};" parent="kcbRz5hDqYjQXDxTJVLB-6" vertex="1">
          <mxGeometry x="45" y="400" width="10" height="100" as="geometry" />
        </mxCell>
        <mxCell id="kcbRz5hDqYjQXDxTJVLB-8" value="Access Menu Management" style="html=1;verticalAlign=bottom;endArrow=block;curved=0;rounded=0;" parent="1" source="kcbRz5hDqYjQXDxTJVLB-3" target="kcbRz5hDqYjQXDxTJVLB-5" edge="1">
          <mxGeometry width="80" relative="1" as="geometry">
            <mxPoint x="385" y="190" as="sourcePoint" />
            <mxPoint x="465" y="190" as="targetPoint" />
            <Array as="points">
              <mxPoint x="300" y="180" />
            </Array>
          </mxGeometry>
        </mxCell>
        <mxCell id="kcbRz5hDqYjQXDxTJVLB-9" value="&amp;nbsp;Display Current Menu Items" style="html=1;verticalAlign=bottom;endArrow=open;dashed=1;endSize=8;curved=0;rounded=0;" parent="1" source="kcbRz5hDqYjQXDxTJVLB-5" target="kcbRz5hDqYjQXDxTJVLB-3" edge="1">
          <mxGeometry relative="1" as="geometry">
            <mxPoint x="465" y="190" as="sourcePoint" />
            <mxPoint x="385" y="190" as="targetPoint" />
            <Array as="points">
              <mxPoint x="300" y="220" />
            </Array>
          </mxGeometry>
        </mxCell>
        <mxCell id="kcbRz5hDqYjQXDxTJVLB-10" value="Select Item to Update" style="html=1;verticalAlign=bottom;endArrow=block;curved=0;rounded=0;" parent="1" source="kcbRz5hDqYjQXDxTJVLB-3" target="kcbRz5hDqYjQXDxTJVLB-5" edge="1">
          <mxGeometry width="80" relative="1" as="geometry">
            <mxPoint x="385" y="270" as="sourcePoint" />
            <mxPoint x="465" y="270" as="targetPoint" />
            <Array as="points">
              <mxPoint x="300" y="260" />
            </Array>
          </mxGeometry>
        </mxCell>
        <mxCell id="kcbRz5hDqYjQXDxTJVLB-11" value="Display Item Details" style="html=1;verticalAlign=bottom;endArrow=open;dashed=1;endSize=8;curved=0;rounded=0;" parent="1" source="kcbRz5hDqYjQXDxTJVLB-5" target="kcbRz5hDqYjQXDxTJVLB-3" edge="1">
          <mxGeometry relative="1" as="geometry">
            <mxPoint x="465" y="270" as="sourcePoint" />
            <mxPoint x="385" y="270" as="targetPoint" />
            <Array as="points">
              <mxPoint x="300" y="300" />
            </Array>
          </mxGeometry>
        </mxCell>
        <mxCell id="kcbRz5hDqYjQXDxTJVLB-12" value="Modify Item Details (Name, Price, Description, etc.)" style="html=1;verticalAlign=bottom;endArrow=block;curved=0;rounded=0;" parent="1" source="kcbRz5hDqYjQXDxTJVLB-3" target="kcbRz5hDqYjQXDxTJVLB-5" edge="1">
          <mxGeometry width="80" relative="1" as="geometry">
            <mxPoint x="385" y="350" as="sourcePoint" />
            <mxPoint x="465" y="350" as="targetPoint" />
            <Array as="points">
              <mxPoint x="300" y="340" />
            </Array>
          </mxGeometry>
        </mxCell>
        <mxCell id="kcbRz5hDqYjQXDxTJVLB-13" value="Validate Changes" style="html=1;verticalAlign=bottom;endArrow=block;curved=0;rounded=0;" parent="1" edge="1">
          <mxGeometry width="80" relative="1" as="geometry">
            <mxPoint x="430" y="360" as="sourcePoint" />
            <mxPoint x="430" y="400" as="targetPoint" />
            <Array as="points">
              <mxPoint x="480" y="360" />
              <mxPoint x="480" y="400" />
            </Array>
          </mxGeometry>
        </mxCell>
        <mxCell id="kcbRz5hDqYjQXDxTJVLB-14" value="Manu Confirmation" style="html=1;verticalAlign=bottom;endArrow=block;curved=0;rounded=0;" parent="1" source="kcbRz5hDqYjQXDxTJVLB-5" target="kcbRz5hDqYjQXDxTJVLB-7" edge="1">
          <mxGeometry width="80" relative="1" as="geometry">
            <mxPoint x="385" y="430" as="sourcePoint" />
            <mxPoint x="465" y="430" as="targetPoint" />
            <Array as="points">
              <mxPoint x="550" y="440" />
            </Array>
          </mxGeometry>
        </mxCell>
        <mxCell id="kcbRz5hDqYjQXDxTJVLB-15" value="Confirm Menu Updation" style="html=1;verticalAlign=bottom;endArrow=open;dashed=1;endSize=8;curved=0;rounded=0;" parent="1" source="kcbRz5hDqYjQXDxTJVLB-7" target="kcbRz5hDqYjQXDxTJVLB-5" edge="1">
          <mxGeometry relative="1" as="geometry">
            <mxPoint x="465" y="430" as="sourcePoint" />
            <mxPoint x="385" y="430" as="targetPoint" />
            <Array as="points">
              <mxPoint x="550" y="480" />
            </Array>
          </mxGeometry>
        </mxCell>
        <mxCell id="kcbRz5hDqYjQXDxTJVLB-16" value="Save Menu Changes" style="html=1;verticalAlign=bottom;endArrow=block;curved=0;rounded=0;" parent="1" source="kcbRz5hDqYjQXDxTJVLB-3" target="kcbRz5hDqYjQXDxTJVLB-5" edge="1">
          <mxGeometry width="80" relative="1" as="geometry">
            <mxPoint x="385" y="510" as="sourcePoint" />
            <mxPoint x="465" y="510" as="targetPoint" />
            <Array as="points">
              <mxPoint x="300" y="520" />
            </Array>
          </mxGeometry>
        </mxCell>
        <mxCell id="kcbRz5hDqYjQXDxTJVLB-17" value="Update Menu Database" style="html=1;verticalAlign=bottom;endArrow=block;curved=0;rounded=0;" parent="1" edge="1">
          <mxGeometry width="80" relative="1" as="geometry">
            <mxPoint x="430" y="560" as="sourcePoint" />
            <mxPoint x="430" y="600" as="targetPoint" />
            <Array as="points">
              <mxPoint x="480" y="560" />
              <mxPoint x="480" y="600" />
            </Array>
          </mxGeometry>
        </mxCell>
        <mxCell id="kcbRz5hDqYjQXDxTJVLB-18" value="Update Menu Item Availability" style="html=1;verticalAlign=bottom;endArrow=block;curved=0;rounded=0;" parent="1" edge="1">
          <mxGeometry width="80" relative="1" as="geometry">
            <mxPoint x="430" y="640" as="sourcePoint" />
            <mxPoint x="430" y="680" as="targetPoint" />
            <Array as="points">
              <mxPoint x="480" y="640" />
              <mxPoint x="480" y="680" />
            </Array>
          </mxGeometry>
        </mxCell>
        <mxCell id="kcbRz5hDqYjQXDxTJVLB-19" value="Confirmation of Menu Update" style="html=1;verticalAlign=bottom;endArrow=open;dashed=1;endSize=8;curved=0;rounded=0;" parent="1" source="kcbRz5hDqYjQXDxTJVLB-5" target="kcbRz5hDqYjQXDxTJVLB-3" edge="1">
          <mxGeometry relative="1" as="geometry">
            <mxPoint x="465" y="670" as="sourcePoint" />
            <mxPoint x="385" y="670" as="targetPoint" />
            <Array as="points">
              <mxPoint x="300" y="720" />
            </Array>
          </mxGeometry>
        </mxCell>
        <mxCell id="kcbRz5hDqYjQXDxTJVLB-21" value="alt" style="shape=umlFrame;whiteSpace=wrap;html=1;pointerEvents=0;" parent="1" vertex="1">
          <mxGeometry x="80" y="500" width="600" height="140" as="geometry" />
        </mxCell>
        <mxCell id="kcbRz5hDqYjQXDxTJVLB-22" value="[validation successful]" style="text;html=1;align=center;verticalAlign=middle;resizable=0;points=[];autosize=1;strokeColor=none;fillColor=none;" parent="1" vertex="1">
          <mxGeometry x="80" y="530" width="140" height="30" as="geometry" />
        </mxCell>
        <mxCell id="kcbRz5hDqYjQXDxTJVLB-23" value="" style="endArrow=none;dashed=1;html=1;rounded=0;exitX=0.001;exitY=0.5;exitDx=0;exitDy=0;exitPerimeter=0;entryX=1;entryY=0.5;entryDx=0;entryDy=0;" parent="1" source="kcbRz5hDqYjQXDxTJVLB-21" target="kcbRz5hDqYjQXDxTJVLB-21" edge="1">
          <mxGeometry width="50" height="50" relative="1" as="geometry">
            <mxPoint x="400" y="470" as="sourcePoint" />
            <mxPoint x="450" y="420" as="targetPoint" />
          </mxGeometry>
        </mxCell>
        <mxCell id="kcbRz5hDqYjQXDxTJVLB-24" value="[validation failed]" style="text;html=1;align=center;verticalAlign=middle;resizable=0;points=[];autosize=1;strokeColor=none;fillColor=none;" parent="1" vertex="1">
          <mxGeometry x="80" y="580" width="110" height="30" as="geometry" />
        </mxCell>
        <mxCell id="kcbRz5hDqYjQXDxTJVLB-25" value="Validation Error Message" style="html=1;verticalAlign=bottom;endArrow=open;dashed=1;endSize=8;curved=0;rounded=0;" parent="1" edge="1">
          <mxGeometry relative="1" as="geometry">
            <mxPoint x="420" y="610" as="sourcePoint" />
            <mxPoint x="175" y="610" as="targetPoint" />
          </mxGeometry>
        </mxCell>
      </root>
    </mxGraphModel>
  </diagram>
</mxfile>
